<svg width="346" height="204" viewBox="0 0 346 204" fill="none" xmlns="http://www.w3.org/2000/svg">
<path d="M0 32C0 14.3269 14.3269 0 32 0H314C331.673 0 346 14.3269 346 32V204H0V32Z" fill="white"/>
<path fill-rule="evenodd" clip-rule="evenodd" d="M329.451 3.97065C324.87 1.44021 319.603 0 314 0H305.668L0 176.478V194.179L329.451 3.97065ZM14.9901 204H46.076L345.721 31L345.996 31.4765C345.902 25.6478 344.25 20.1977 341.439 15.5248L14.9901 204ZM32 0H273.668L0 158.002V32C0 14.3269 14.3269 0 32 0ZM346 49.314L78.076 204H346V49.314Z" fill="#3F6CB9"/>
</svg>
