<svg width="346" height="204" viewBox="0 0 346 204" fill="none" xmlns="http://www.w3.org/2000/svg">
<path d="M0 32C0 14.3269 14.3269 0 32 0H314C331.673 0 346 14.3269 346 32V204H0V32Z" fill="white"/>
<path fill-rule="evenodd" clip-rule="evenodd" d="M235.903 0H32C14.3269 0 0 14.3269 0 32V136.199L235.903 0ZM0 154.674V173.519L300.543 0H267.903L0 154.674ZM0 204V191.994L327.436 2.94884C332.877 5.46956 337.491 9.47396 340.758 14.4428L12.435 204H0ZM44.4349 204L345.934 29.9294C345.978 30.6139 346 31.3044 346 32V48.9217L77.3965 204H44.4349ZM109.396 204H346V67.3969L109.396 204Z" fill="#3F6CB9"/>
</svg>
