<svg width="20" height="20" viewBox="0 0 20 20" fill="none" xmlns="http://www.w3.org/2000/svg">
<g clip-path="url(#clip0)">
<path d="M18.0002 0.0733299C17.8202 0.126663 16.8536 1.06 13.8869 4.01333C10.3336 7.56 9.99358 7.88 9.88691 7.79333C9.82025 7.74 8.10691 6.04 6.07358 4.01333C2.18025 0.113329 2.12025 0.0666618 1.52692 0.0666618C0.786915 0.0666618 0.0735819 0.773329 0.0669152 1.50666C0.0669152 2.12 0.113582 2.18 4.02025 6.08666C6.04692 8.10666 7.74025 9.82 7.79358 9.88666C7.88025 9.99333 7.55358 10.34 4.02025 13.8867C0.446915 17.4733 0.146915 17.7933 0.0669152 18.08C-0.186418 19.0267 0.386915 19.9133 1.30692 19.9867C2.04692 20.0467 1.91358 20.16 6.12691 15.9533C8.23358 13.8533 9.98025 12.1333 10.0136 12.1333C10.0469 12.1333 11.7202 13.78 13.7336 15.7867C15.9936 18.0533 17.4802 19.4867 17.6336 19.56C18.1336 19.8 18.8402 19.6867 19.2536 19.3067C19.7136 18.8933 19.8336 18.0267 19.5069 17.5333C19.4136 17.3867 17.7136 15.6533 15.7336 13.6733C13.7536 11.6933 12.1336 10.0467 12.1336 10.0133C12.1336 9.98 13.8069 8.27333 15.8536 6.22666C17.9002 4.17333 19.6602 2.38 19.7736 2.24C19.9469 2 19.9669 1.92666 19.9669 1.46666C19.9669 1.01999 19.9402 0.919996 19.7802 0.679996C19.5002 0.253328 19.1336 0.0399952 18.6402 0.0199947C18.4202 0.0133286 18.1269 0.0399952 18.0002 0.0733299Z" fill="#5C5C5C"/>
</g>
<defs>
<clipPath id="clip0">
<rect width="20" height="20" fill="white"/>
</clipPath>
</defs>
</svg>
